<svg xmlns="http://www.w3.org/2000/svg" viewBox="0 0 166.8 118.26"><defs><style>.cls-1{fill:#2a546b;}.cls-2{fill:#d4d4d5;}</style></defs><g id="Capa_2" data-name="Capa 2"><g id="Capa_6" data-name="Capa 6"><ellipse class="cls-1" cx="81.82" cy="72.5" rx="79.79" ry="32.04" transform="translate(-9.56 12.5) rotate(-8.26)"/></g><g id="Capa_3" data-name="Capa 3"><path class="cls-2" d="M47,48.84a21.43,21.43,0,0,1,3.5-5.36,37,37,0,0,1,4.07-4,24.3,24.3,0,0,0,1.84-1.71,6.29,6.29,0,0,0,.56-.69l0,0a2,2,0,0,0-.17.93A3.18,3.18,0,0,0,57,39.14a3,3,0,0,0,.69,1,1.89,1.89,0,0,0,.79.49c.14,0-.13,0-.42,0a16.9,16.9,0,0,0-2.35.2,88.69,88.69,0,0,0-11,2.6,109.62,109.62,0,0,0-10.81,3.79,65.68,65.68,0,0,0-9.95,5,21.39,21.39,0,0,0-3.84,3,3.65,3.65,0,0,0-.7.93,1.47,1.47,0,0,0,0-.82,2.07,2.07,0,0,0-.48-1c-.25-.21.19.12.79.26A15.7,15.7,0,0,0,22,55a39.71,39.71,0,0,0,5.32.22c.94,0,1.8,0,2.85-.09s2.1-.07,3.14-.07q3.15,0,6.25.2a97.25,97.25,0,0,1,24.5,4.67,51.75,51.75,0,0,1,11.88,5.58,27.52,27.52,0,0,1,2.85,2.14,20.22,20.22,0,0,1,2.7,2.76A15.88,15.88,0,0,1,83.75,74a12.93,12.93,0,0,1,1.08,4.64,14.54,14.54,0,0,1-2.53,8.51,25.46,25.46,0,0,1-4.92,5.46,58.8,58.8,0,0,1-10.89,7.13A113.14,113.14,0,0,1,43.4,109a80.39,80.39,0,0,1-25.22,3,43.33,43.33,0,0,1-6.71-.91,27.24,27.24,0,0,1-3.53-1,17.18,17.18,0,0,1-3.84-2A11,11,0,0,1,2,106.15a8.16,8.16,0,0,1-1.8-3.56,7.75,7.75,0,0,1,.38-4.54A9.42,9.42,0,0,1,2.4,95.19a15,15,0,0,1,3.68-2.8l1-.52c.37-.17.6-.24.9-.37.59-.25,1.1-.42,1.63-.61,4.13-1.38,8-2.36,11.9-3.35s7.81-1.88,11.71-2.72Q45,82.29,56.74,80.13c15.68-2.91,31.4-5.49,47.23-7.58s31.69-3.59,47.9-.78c-15.35,5.88-31.06,7.68-46.64,9.87s-31.12,5.12-46.59,8.25q-11.6,2.35-23.1,5c-3.83.9-7.65,1.79-11.43,2.75s-7.6,2-11,3.15c-.41.14-.84.29-1.16.43a4.73,4.73,0,0,0-.47.2l-.28.13a5.23,5.23,0,0,0-1.07.75s.07,0,.21-.39a2.9,2.9,0,0,0,.12-1.62,2.34,2.34,0,0,0-.43-1c-.06-.09,0,0,.1.05a6.78,6.78,0,0,0,1.47.7,17.6,17.6,0,0,0,2.17.63,33,33,0,0,0,5.06.69,70.54,70.54,0,0,0,21.84-2.57,106.14,106.14,0,0,0,21.09-8.14A49.77,49.77,0,0,0,70.85,85a16,16,0,0,0,3.08-3.28,4.71,4.71,0,0,0,1-2.64,4.28,4.28,0,0,0-1.1-2.52,15.09,15.09,0,0,0-3.33-2.94A42.55,42.55,0,0,0,60.92,69a93.16,93.16,0,0,0-22-4.56c-1.88-.16-3.76-.26-5.63-.3-.94,0-1.87,0-2.8,0s-2.06,0-3.09,0a48.24,48.24,0,0,1-6.56-.43A23.38,23.38,0,0,1,17.19,63a14.22,14.22,0,0,1-2.05-.83,8.92,8.92,0,0,1-2.35-1.69,6.88,6.88,0,0,1-1.88-3.58,7,7,0,0,1,.37-3.74,11.31,11.31,0,0,1,2.65-3.93A29,29,0,0,1,19.47,45a72.7,72.7,0,0,1,11.38-5.47,115.84,115.84,0,0,1,11.7-3.84A98.55,98.55,0,0,1,54.73,33a23.31,23.31,0,0,1,3.58-.2,9.05,9.05,0,0,1,2.52.39,5.48,5.48,0,0,1,2.09,1.18A4.9,4.9,0,0,1,64.05,36a4.73,4.73,0,0,1,.41,1.87A5.3,5.3,0,0,1,64,40.19a7.89,7.89,0,0,1-.71,1.24A13.25,13.25,0,0,1,61.9,43a27.4,27.4,0,0,1-2.55,2.29,19.89,19.89,0,0,1-5.47,3.12,16,16,0,0,1-6.48,1.11Z"/></g><g id="Capa_4" data-name="Capa 4"><path class="cls-2" d="M103.21,20.9a46.47,46.47,0,0,1,.47,11.74l-.91,11.56c-.59,7.71-1.29,15.4-2,23.1s-1.49,15.37-2.37,23l-1.32,11.51c-.25,1.91-.38,3.84-.73,5.74a14.29,14.29,0,0,1-2.31,5.54l-5-1.55q3.09-7.36,6.45-14.59c1.13-2.41,2.22-4.83,3.37-7.22l3.45-7.17c4.62-9.56,9.44-19,14.37-28.41,2.45-4.7,5-9.37,7.48-14s5-9.34,7.74-13.91,5.53-9.08,8.57-13.48A124.74,124.74,0,0,1,150.5,0a124.88,124.88,0,0,1-4.81,15.45q-2.82,7.5-6.18,14.72c-2.22,4.83-4.65,9.54-7,14.29s-4.81,9.45-7.28,14.15c-4.91,9.4-9.93,18.75-15.15,28l-3.92,6.93c-1.32,2.31-2.68,4.59-4,6.88q-4,6.87-8.31,13.61l-2.7,4.24-2.26-5.79a14.2,14.2,0,0,1-.83-6c.13-1.93.49-3.83.73-5.74l1.62-11.47Q92,77.83,93.87,66.41c1.28-7.62,2.54-15.24,3.92-22.85l2-11.42A47.11,47.11,0,0,1,103.21,20.9Z"/></g><g id="Capa_5" data-name="Capa 5"><path class="cls-2" d="M122.07,62.47A96.7,96.7,0,0,1,132.48,61a81.83,81.83,0,0,1,10.5-.46,74.55,74.55,0,0,1,10.65.9,43.55,43.55,0,0,1,5.53,1.26,19.42,19.42,0,0,1,3,1.17,9.08,9.08,0,0,1,3.51,2.84,7.66,7.66,0,0,1,.78,1.54,6.18,6.18,0,0,1,.34,1.86,5.8,5.8,0,0,1,0,.94c0,.29-.1.57-.16.85a7.29,7.29,0,0,1-.51,1.44,11.65,11.65,0,0,1-2.59,3.4c-.42.4-.83.75-1.26,1.1l-1.26.92-1.24.82-1.25.72a45.37,45.37,0,0,1-10.17,3.92,76,76,0,0,1-10.41,2.06c-1.75.23-3.51.4-5.3.48a48.39,48.39,0,0,1-5.39,0l-.08-.3a91.85,91.85,0,0,1,9.07-5.51c3-1.66,6.1-3.2,9.11-4.7l8.74-4.33a31.65,31.65,0,0,0,3.65-2c.46-.29.76-.62.76-.5s0,.07,0,.25a.81.81,0,0,0,0,.22,1.45,1.45,0,0,0,0,.3,2.32,2.32,0,0,0,.15.59c.1.19.11.28.23.38s0-.16-.43-.42a10.65,10.65,0,0,0-1.73-.88,34.75,34.75,0,0,0-4.45-1.36c-3.16-.75-6.47-1.38-9.8-2s-6.71-1.22-10.1-1.91S125.5,63.24,122.07,62.47Z"/></g></g></svg>